{"title":"Ek Tha Tiger (2012) 720p BRrip x264 [Junaid Zia]","uid":8761373,"size":2018680025,"categoryP":"video","categoryS":"hd___movies","magnet":"?xt=urn:btih:44b40b97a14c507083878e8c2d2e3a03e621f642&amp;dn=Ek+Tha+Tiger+%282012%29+720p+BRrip+x264+%5BJunaid+Zia%5D&amp;tr=udp%3A%2F%2Ftracker.openbittorrent.com%3A80&amp;tr=udp%3A%2F%2Fopen.demonii.com%3A1337&amp;tr=udp%3A%2F%2Ftracker.coppersurfer.tk%3A6969&amp;tr=udp%3A%2F%2Fexodus.desync.com%3A6969","seeders":1,"leechers":0,"uploader":"junaidzia","files":15,"time":1375249589,"description":"[url]http://www.imdb.com/title/tt2016894/[/url]\n\n[b]General[/b]\nFormat                         : Matroska\nFormat version                 : Version 4 / Version 2\nFile size                      : 1.86 GiB\nDuration                       : 2h 12mn\nOverall bit rate               : 2 007 Kbps\nEncoded date                   : UTC 2013-07-31 02:28:20\n\n[b]Video[/b]\nID                             : 1\nFormat                         : AVC\nFormat/Info                    : Advanced Video Codec\nFormat profile                 : &lt;a class=&quot;__cf_email__&quot; href=&quot;/cdn-cgi/l/email-protection&quot; data-cfemail=&quot;064e6f616e464a322836&quot;&gt;[email&amp;#160;protected]&lt;/a&gt;&lt;script cf-hash='f9e31' type=&quot;text/javascript&quot;&gt;\n/* &lt;![CDATA[ */!function(){try{var t=&quot;currentScript&quot;in document?document.currentScript:function(){for(var t=document.getElementsByTagName(&quot;script&quot;),e=t.length;e--;)if(t[e].getAttribute(&quot;cf-hash&quot;))return t[e]}();if(t&amp;&amp;t.previousSibling){var e,r,n,i,c=t.previousSibling,a=c.getAttribute(&quot;data-cfemail&quot;);if(a){for(e=&quot;&quot;,r=parseInt(a.substr(0,2),16),n=2;a.length-n;n+=2)i=parseInt(a.substr(n,2),16)^r,e+=String.fromCharCode(i);e=document.createTextNode(e),c.parentNode.replaceChild(e,c)}}}catch(u){}}();/* ]]&gt; */&lt;/script&gt;\nFormat settings, CABAC         : Yes\nFormat settings, ReFrames      : 8 frames\nCodec ID                       : V_MPEG4/ISO/AVC\nDuration                       : 2h 12mn\nBit rate                       : 1 749 Kbps\nWidth                          : 1 280 pixels\nHeight                         : 544 pixels\nDisplay aspect ratio           : 2.35:1\nFrame rate mode                : Constant\nFrame rate                     : 24.000 fps\nColor space                    : YUV\nChroma subsampling             : 4:2:0\nBit depth                      : 8 bits\nScan type                      : Progressive\nBits/(Pixel*Frame)             : 0.105\nStream size                    : 1.59 GiB (85%)\nTitle                          : Encoder Junaid Zia\n\nLanguage                       : Hindi\nDefault                        : Yes\nForced                         : No\n\n[b]Audio[/b]\nID                             : 2\nFormat                         : AC-3\nFormat/Info                    : Audio Coding 3\nMode extension                 : CM (complete main)\nFormat settings, Endianness    : Big\nCodec ID                       : A_AC3\nDuration                       : 2h 12mn\nBit rate mode                  : Constant\nBit rate                       : 256 Kbps\nChannel(s)                     : 6 channels\nChannel positions              : Front: L C R, Side: L R, LFE\nSampling rate                  : 48.0 KHz\nBit depth                      : 16 bits\nCompression mode               : Lossy\nStream size                    : 243 MiB (13%)\nLanguage                       : Hindi\nDefault                        : Yes\nForced                         : No\nSubtitles Files              : No[b][/b]\n\n\n[b]Screens[/b]\n\n[IMG]http://imageshack.us/a/img11/8075/kb0z.jpg[/IMG]\n[IMG]http://imageshack.us/a/img33/5458/um7z.jpg[/IMG]\n[IMG]http://imageshack.us/a/img10/8430/znc7.jpg[/IMG]\n[IMG]http://imageshack.us/a/img443/3246/hdik.jpg[/IMG]\n[IMG]http://imageshack.us/a/img542/1315/y15n.jpg[/IMG]\n[IMG]http://imageshack.us/a/img62/9115/499y.jpg[/IMG]\n[IMG]http://imageshack.us/a/img585/3128/onqz.jpg[/IMG]\n[IMG]http://imageshack.us/a/img202/1176/dqo8.jpg[/IMG]\n[IMG]http://imageshack.us/a/img607/6216/qcwa.jpg[/IMG]\n[IMG]http://imageshack.us/a/img832/2864/jedl.jpg[/IMG]\n[IMG]http://imageshack.us/a/img841/5092/dgty.jpg[/IMG]\n\n\nSeed After Downloading, Remember Sharing is Caring. ","torrent":{"xt":"urn:btih:44b40b97a14c507083878e8c2d2e3a03e621f642","amp;dn":"Ek+Tha+Tiger+%282012%29+720p+BRrip+x264+%5BJunaid+Zia%5D","amp;tr":["udp%3A%2F%2Ftracker.openbittorrent.com%3A80","udp%3A%2F%2Fopen.demonii.com%3A1337","udp%3A%2F%2Ftracker.coppersurfer.tk%3A6969","udp%3A%2F%2Fexodus.desync.com%3A6969"],"infoHash":"44b40b97a14c507083878e8c2d2e3a03e621f642","infoHashBuffer":{"type":"Buffer","data":[68,180,11,151,161,76,80,112,131,135,142,140,45,46,58,3,230,33,246,66]},"announce":[],"urlList":[]}}